<?xml version="1.0" encoding="utf-8"?>
<!-- Generator: Adobe Illustrator 19.0.0, SVG Export Plug-In . SVG Version: 6.00 Build 0)  -->
<svg version="1.1" id="Layer_1" xmlns="http://www.w3.org/2000/svg" xmlns:xlink="http://www.w3.org/1999/xlink" x="0px" y="0px"
	 width="127.1px" height="27.7px" viewBox="0 0 127.1 27.7" style="enable-background:new 0 0 127.1 27.7;" xml:space="preserve">
<style type="text/css">
	.st0{fill:#FFFFFF;}
</style>
<g id="XMLID_1_">
	<path id="XMLID_22_" class="st0" d="M12.2,11.3c2.6-0.6,4.3-2.5,4.3-5.3V6c0-1.5-0.5-2.8-1.4-3.7C13.8,1,11.8,0.3,9.2,0.3H0v22.4
		h9.7c5.1,0,8-2.1,8-5.8v-0.1C17.7,13.9,15.3,11.7,12.2,11.3z M0.7,1h8.4c4.2,0,6.7,2,6.7,5V6c0,3.4-2.8,5-6.1,5h-9V1z M17,17
		c0,3.2-2.7,5.1-7.3,5.1h-9V11.7h9.5C13.9,11.7,17,13.5,17,17L17,17z"/>
	<path id="XMLID_31_" class="st0" d="M30,6.3c-5,0-8.3,3.9-8.3,8.4v0.1c0,4.5,3.3,8.3,8.3,8.3c5,0,8.3-3.9,8.3-8.4v-0.1
		C38.3,10.2,35,6.3,30,6.3z M37.6,14.8c0,4.2-3.1,7.7-7.6,7.7c-4.5,0-7.6-3.5-7.6-7.7v-0.1c0-4.2,3.1-7.7,7.6-7.7
		C34.5,7,37.6,10.5,37.6,14.8L37.6,14.8z"/>
	<path id="XMLID_34_" class="st0" d="M51.1,6.3c-1.5,0-2.9,0.4-4,1V6.7h-0.7v1.1c-2.3,1.5-3.6,4.1-3.6,7v0.1c0,2.8,1.3,5.4,3.6,6.9
		v5.9h0.7v-5.5c1.2,0.6,2.5,1,4,1c5,0,8.3-3.9,8.3-8.4v-0.1C59.5,10.2,56.1,6.3,51.1,6.3z M43.5,14.8L43.5,14.8
		c0-2.5,1.1-4.8,2.9-6.2v12.3C44.6,19.4,43.5,17.2,43.5,14.8z M58.8,14.8c0,4.2-3.1,7.7-7.6,7.7c-1.5,0-2.9-0.4-4-1.1V8.1
		c1.1-0.7,2.5-1.1,4-1.1C55.6,7,58.8,10.5,58.8,14.8L58.8,14.8z"/>
	<path id="XMLID_36_" class="st0" d="M71.2,11c-5.5-1.1-7.2-2.6-7.2-5.3V5.7c0-2.6,2.6-5.1,6.5-5.1c2.8,0,5.2,1,7.2,2.5l0.4-0.6
		C76.1,1,73.5,0,70.5,0c-4.2,0-7.3,2.6-7.3,5.7v0.1c0,3.1,2.1,4.8,7.6,5.9c5.7,1.2,7.3,2.6,7.3,5.4v0.1c0,3-2.7,5.3-6.9,5.3
		c-3.3,0-6.1-1.2-8.4-3.5l-0.5,0.5c2.4,2.3,5.4,3.6,8.9,3.6c4.7,0,7.6-2.6,7.6-6V17C78.9,14,77,12.2,71.2,11z"/>
	<path id="XMLID_37_" class="st0" d="M91.1,6.3c-3.8,0-5.9,2.8-6.4,4.8V6.7H84v16h0.7v-8.9c0-3.8,2.8-6.9,6.4-6.9
		c4,0,6.1,2.8,6.1,6.8v9h0.7v-9.1C97.9,9.2,95.5,6.3,91.1,6.3z"/>
	<rect id="XMLID_38_" x="103.5" y="0.3" class="st0" width="1" height="1.8"/>
	<rect id="XMLID_39_" x="103.7" y="6.7" class="st0" width="0.7" height="16"/>
	<path id="XMLID_42_" class="st0" d="M118.8,6.3c-1.5,0-2.9,0.4-4,1V6.7h-0.7v1.1c-2.3,1.5-3.6,4.1-3.6,7v0.1c0,2.8,1.3,5.4,3.6,6.9
		v5.9h0.7v-5.5c1.2,0.6,2.5,1,4,1c5,0,8.3-3.9,8.3-8.4v-0.1C127.1,10.2,123.8,6.3,118.8,6.3z M111.2,14.8L111.2,14.8
		c0-2.5,1.1-4.8,2.9-6.2v12.3C112.3,19.4,111.2,17.2,111.2,14.8z M126.4,14.8c0,4.2-3.1,7.7-7.6,7.7c-1.5,0-2.9-0.4-4-1.1V8.1
		c1.1-0.7,2.5-1.1,4-1.1C123.3,7,126.4,10.5,126.4,14.8L126.4,14.8z"/>
</g>
</svg>
